<svg preserveAspectRatio="none" width="100%" height="100%" overflow="visible" style="display: block;" viewBox="0 0 84.5455 27.8183" fill="none" xmlns="http://www.w3.org/2000/svg">
<g id="Group">
<path id="Vector" d="M77.8129 9.04091e-05H6.73656C6.47748 9.04091e-05 6.22151 9.04091e-05 5.96311 0.00148132C5.74681 0.00287223 5.53223 0.00691282 5.31385 0.0103136C4.83943 0.0158089 4.36612 0.0568925 3.89805 0.133207C3.43063 0.211184 2.97785 0.358191 2.55503 0.569257C2.13273 0.782109 1.74686 1.05869 1.41142 1.38896C1.07422 1.71831 0.793135 2.09898 0.578979 2.51636C0.364231 2.9329 0.215324 3.37926 0.137401 3.84003C0.0587379 4.30021 0.0164082 4.76571 0.0107925 5.23233C0.00423598 5.44556 0.00354359 5.65949 8.86917e-05 5.87274V21.9477C0.00354359 22.1636 0.00423598 22.3728 0.0107925 22.5888C0.01641 23.0554 0.0587396 23.5209 0.137401 23.981C0.215109 24.4421 0.364025 24.8887 0.578979 25.3054C0.793038 25.7214 1.07416 26.1005 1.41142 26.4281C1.74559 26.7598 2.13171 27.0366 2.55503 27.2478C2.97785 27.4594 3.43058 27.6073 3.89805 27.6865C4.3662 27.7622 4.83946 27.8033 5.31385 27.8094C5.53223 27.8142 5.74681 27.8169 5.96311 27.8169C6.2215 27.8183 6.47749 27.8183 6.73656 27.8183H77.8129C78.0668 27.8183 78.3248 27.8183 78.5787 27.8169C78.794 27.8169 79.0148 27.8142 79.2301 27.8094C79.7036 27.8036 80.1759 27.7625 80.6431 27.6865C81.1121 27.6067 81.5665 27.4589 81.9913 27.2478C82.4143 27.0364 82.8 26.7597 83.1339 26.4281C83.4703 26.0993 83.752 25.7204 83.9687 25.3054C84.1821 24.8884 84.3296 24.4418 84.4061 23.981C84.4849 23.5208 84.5288 23.0554 84.5373 22.5888C84.54 22.3728 84.54 22.1636 84.54 21.9477C84.5455 21.695 84.5455 21.4437 84.5455 21.187V6.63204C84.5455 6.37735 84.5455 6.12471 84.54 5.87274C84.54 5.65949 84.54 5.44556 84.5373 5.2323C84.5288 4.76564 84.4849 4.30025 84.4061 3.84C84.3294 3.3795 84.1819 2.93317 83.9687 2.51633C83.5326 1.67975 82.8411 0.998781 81.9913 0.569195C81.5665 0.358644 81.1121 0.211676 80.6431 0.133145C80.176 0.0564937 79.7036 0.0153958 79.2301 0.0102162C79.0148 0.00682241 78.794 0.00274705 78.5787 0.00139091C78.3248 0 78.0668 0 77.8129 0V9.04091e-05Z" fill="var(--fill-0, #A6A6A6)"/>
<path id="Vector_2" d="M5.96646 27.2099C5.75119 27.2099 5.54113 27.2072 5.32755 27.2024C4.88512 27.1968 4.44371 27.1588 4.00696 27.089C3.59972 27.02 3.2052 26.8915 2.83644 26.708C2.47105 26.5259 2.13779 26.2872 1.84942 26.001C1.55688 25.7181 1.31333 25.39 1.12841 25.0298C0.941456 24.6671 0.812073 24.2785 0.744768 23.8773C0.672084 23.4462 0.632758 23.0102 0.627131 22.5733C0.622652 22.4266 0.616788 21.9383 0.616788 21.9383V5.87287C0.616788 5.87287 0.623034 5.39202 0.627167 5.25075C0.632555 4.81448 0.671651 4.37925 0.744118 3.94881C0.811547 3.54651 0.941031 3.1567 1.12808 2.7929C1.31232 2.43287 1.55452 2.10456 1.8453 1.82069C2.13576 1.53412 2.47008 1.29418 2.83609 1.10961C3.20401 0.926622 3.59778 0.799103 4.0042 0.731322C4.44238 0.660779 4.88532 0.622641 5.32929 0.617226L5.9668 0.608734H78.5752L79.2203 0.617566C79.6602 0.622712 80.0992 0.660511 80.5333 0.73064C80.9438 0.799271 81.3417 0.92768 81.7138 1.11165C82.4471 1.48361 83.0437 2.07208 83.4201 2.7946C83.6042 3.15589 83.7317 3.54251 83.7982 3.94135C83.8716 4.37531 83.9126 4.81397 83.921 5.25381C83.9231 5.45077 83.9231 5.66232 83.9231 5.87287C83.9287 6.13366 83.9287 6.38189 83.9287 6.63216V21.1871C83.9287 21.4398 83.9287 21.6863 83.9231 21.9348C83.9231 22.161 83.9231 22.3682 83.9203 22.5814C83.9121 23.0134 83.8717 23.4442 83.7996 23.8704C83.7336 24.2745 83.605 24.6663 83.418 25.0318C83.2318 25.3882 82.9897 25.7134 82.7005 25.9955C82.4119 26.2833 82.078 26.5234 81.7118 26.7066C81.3407 26.8916 80.9434 27.0205 80.5333 27.089C80.0966 27.1592 79.6552 27.1971 79.2127 27.2024C79.0057 27.2072 78.7891 27.2099 78.5786 27.2099L77.8128 27.2113L5.96646 27.2099Z" fill="var(--fill-0, black)"/>
</g>
</svg>
