<svg preserveAspectRatio="none" width="100%" height="100%" overflow="visible" style="display: block;" viewBox="0 0 84.5455 27.8182" fill="none" xmlns="http://www.w3.org/2000/svg">
<path id="Vector" fill-rule="evenodd" clip-rule="evenodd" d="M81.413 0.55671C82.861 0.55671 84.0462 1.86958 84.0462 3.47727V24.3409C84.0462 25.9486 82.8688 27.2615 81.413 27.2615H3.13247C1.68444 27.2615 0.499266 25.9486 0.499266 24.3409V3.47727C0.499266 1.86958 1.67666 0.55671 3.13247 0.55671C3.13247 0.55671 81.413 0.55671 81.413 0.55671ZM81.413 0H3.13247C1.40603 0 0 1.56781 0 3.47727V24.3409C0 26.2573 1.40603 27.8182 3.13247 27.8182H81.413C83.1379 27.8182 84.5455 26.2573 84.5455 24.3409V3.47727C84.5455 1.56781 83.1379 0 81.413 0Z" fill="var(--fill-0, #A6A6A6)"/>
</svg>
