<svg preserveAspectRatio="none" width="100%" height="100%" overflow="visible" style="display: block;" viewBox="0 0 53.0318 11.0052" fill="none" xmlns="http://www.w3.org/2000/svg">
<g id="Group">
<path id="Vector" d="M5.56387 6.53021H2.21961L1.4165 8.89498H0L3.16763 0.145935H4.63932L7.80694 8.89498H6.36629L5.56387 6.53021ZM2.56597 5.43899H5.21685L3.91006 1.60114H3.87349L2.56597 5.43899Z" fill="var(--fill-0, white)"/>
<path id="Vector_2" d="M14.6475 5.70594C14.6475 7.68817 13.5836 8.96171 11.9781 8.96171C11.5714 8.98293 11.1669 8.8895 10.8109 8.69213C10.455 8.49476 10.162 8.20143 9.96545 7.84571H9.93507V11.0052H8.62207V2.51622H9.89301V3.57717H9.91715C10.1227 3.22316 10.4207 2.93134 10.7793 2.73277C11.138 2.5342 11.5439 2.43629 11.9539 2.44948C13.5774 2.44949 14.6475 3.72922 14.6475 5.70594ZM13.298 5.70594C13.298 4.41451 12.6287 3.56547 11.6076 3.56547C10.6044 3.56547 9.92957 4.43239 9.92957 5.70594C9.92957 6.99119 10.6044 7.85192 11.6076 7.85192C12.6287 7.85192 13.298 7.00908 13.298 5.70594Z" fill="var(--fill-0, white)"/>
<path id="Vector_3" d="M21.6883 5.70594C21.6883 7.68816 20.6244 8.96171 19.0188 8.96171C18.6121 8.98292 18.2077 8.8895 17.8517 8.69213C17.4958 8.49476 17.2028 8.20142 17.0062 7.84571H16.9758V11.0052H15.6628V2.51621H16.9338V3.57716H16.9579C17.1635 3.22315 17.4614 2.93134 17.8201 2.73276C18.1787 2.53419 18.5847 2.43629 18.9947 2.44948C20.6182 2.44948 21.6883 3.72922 21.6883 5.70594ZM20.3387 5.70594C20.3387 4.41451 19.6695 3.56547 18.6483 3.56547C17.6451 3.56547 16.9703 4.43239 16.9703 5.70594C16.9703 6.99118 17.6451 7.85191 18.6483 7.85191C19.6695 7.85191 20.3388 7.00907 20.3388 5.70594H20.3387Z" fill="var(--fill-0, white)"/>
<path id="Vector_4" d="M26.3409 6.45722C26.4382 7.32484 27.2834 7.8945 28.4384 7.8945C29.5451 7.8945 30.3413 7.32481 30.3413 6.54251C30.3413 5.86342 29.8611 5.4568 28.724 5.17814L27.587 4.90499C25.9759 4.51694 25.228 3.76561 25.228 2.54641C25.228 1.03687 26.5472 0 28.4204 0C30.2744 0 31.5453 1.03687 31.5881 2.54641H30.2626C30.1833 1.6733 29.4595 1.14627 28.4018 1.14627C27.3441 1.14627 26.6203 1.67949 26.6203 2.45559C26.6203 3.07414 27.0826 3.4381 28.2134 3.71673L29.1801 3.95342C30.9802 4.37793 31.7281 5.09901 31.7281 6.37873C31.7281 8.01556 30.4206 9.04073 28.3411 9.04073C26.3954 9.04073 25.0817 8.03964 24.9968 6.45716L26.3409 6.45722Z" fill="var(--fill-0, white)"/>
<path id="Vector_5" d="M34.5623 1.00662V2.51617H35.7787V3.55303H34.5623V7.06957C34.5623 7.61586 34.8058 7.87044 35.3405 7.87044C35.485 7.86793 35.6291 7.85781 35.7725 7.84014V8.87081C35.5321 8.91561 35.2877 8.9359 35.0432 8.93136C33.7481 8.93136 33.2431 8.4463 33.2431 7.20921V3.55303H32.313V2.51617H33.243V1.00662H34.5623Z" fill="var(--fill-0, white)"/>
<path id="Vector_6" d="M36.4834 5.70593C36.4834 3.69894 37.6687 2.43777 39.5172 2.43777C41.3718 2.43777 42.5516 3.69891 42.5516 5.70593C42.5516 7.71843 41.378 8.97408 39.5172 8.97408C37.657 8.97408 36.4834 7.71842 36.4834 5.70593ZM41.2138 5.70593C41.2138 4.32918 40.5811 3.51661 39.5172 3.51661C38.4532 3.51661 37.8212 4.33537 37.8212 5.70593C37.8212 7.08818 38.4532 7.89456 39.5172 7.89456C40.5811 7.89456 41.2138 7.08818 41.2138 5.70593H41.2138Z" fill="var(--fill-0, white)"/>
<path id="Vector_7" d="M43.634 2.51616H44.8863V3.60187H44.9167C45.0014 3.26278 45.2006 2.96311 45.4808 2.75324C45.761 2.54337 46.1051 2.43608 46.4553 2.44941C46.6066 2.44888 46.7575 2.46527 46.9052 2.49827V3.72296C46.7142 3.66476 46.5149 3.63803 46.3152 3.64384C46.1245 3.63613 45.9343 3.66966 45.7578 3.74215C45.5813 3.81464 45.4226 3.92436 45.2926 4.06378C45.1626 4.20321 45.0644 4.36903 45.0048 4.54986C44.9451 4.7307 44.9254 4.92227 44.947 5.11141V8.8949H43.634L43.634 2.51616Z" fill="var(--fill-0, white)"/>
<path id="Vector_8" d="M52.9586 7.02145C52.782 8.1794 51.6512 8.97408 50.2043 8.97408C48.3435 8.97408 47.1885 7.73081 47.1885 5.7362C47.1885 3.73541 48.3497 2.43777 50.1491 2.43777C51.9189 2.43777 53.0318 3.65008 53.0318 5.58415V6.03275H48.5139V6.11187C48.4931 6.34662 48.5225 6.58311 48.6004 6.80564C48.6782 7.02816 48.8026 7.23162 48.9654 7.40251C49.1281 7.57339 49.3255 7.70779 49.5443 7.79678C49.7632 7.88577 49.9985 7.92731 50.2347 7.91864C50.5449 7.94763 50.8563 7.87597 51.1225 7.71432C51.3886 7.55267 51.5954 7.30966 51.7119 7.02144L52.9586 7.02145ZM48.5201 5.11766H51.7181C51.7299 4.90658 51.6978 4.69535 51.6238 4.49723C51.5499 4.2991 51.4356 4.11836 51.2883 3.96634C51.141 3.81433 50.9637 3.69432 50.7677 3.61385C50.5717 3.53337 50.3611 3.49418 50.1491 3.49872C49.9353 3.49745 49.7233 3.53841 49.5255 3.61926C49.3276 3.7001 49.1478 3.81921 48.9963 3.96973C48.8449 4.12024 48.7248 4.29917 48.6431 4.4962C48.5614 4.69323 48.5196 4.90445 48.5201 5.11767V5.11766Z" fill="var(--fill-0, white)"/>
</g>
</svg>
