<svg width="130" height="41" viewBox="0 0 130 41" fill="none" xmlns="http://www.w3.org/2000/svg">
<g clip-path="url(#clip0_321_1507)">
<path d="M38.7768 0H21.9961C20.2959 0 18.7795 1.04116 18.1977 2.60289L11.6958 20.0754C11.1141 21.6338 9.59767 22.6717 7.90088 22.6717H24.6816C26.3818 22.6717 27.8982 21.6305 28.4811 20.0688L34.983 2.59297C35.5647 1.03454 37.0811 0.00110292 38.7779 0.00110292L38.7768 0Z" fill="#BFBFBF"/>
<path d="M0 9.28114H9.91015C10.9136 9.28114 11.8099 9.89547 12.1537 10.8164L15.9949 21.1353C16.3399 22.0574 17.2362 22.6673 18.2351 22.6673H8.32047C7.31705 22.6673 6.42074 22.053 6.07687 21.132L2.24021 10.8098C1.89522 9.88885 0.998907 9.27783 0 9.27783V9.28114Z" fill="#DCDCDC"/>
<path d="M17.4201 36.4581C17.4201 36.4581 16.5159 23.9168 22.5172 12.5137C22.5172 12.5137 23.214 11.917 22.8926 13.0508C22.0561 16.01 19.658 23.2198 19.923 27.3414C20.3491 33.9953 20.9433 36.457 20.9433 36.457C20.9433 36.457 19.0334 36.7559 17.4189 36.457L17.4201 36.4581Z" fill="#B2B2B2"/>
<path d="M18.3196 28.2348C18.3196 28.2348 12.2416 24.5477 8.68115 18.3592C8.68115 18.3592 8.88071 18.0151 9.06786 18.3592C9.25502 18.7033 12.9609 23.1007 14.811 24.2411C18.0219 26.2209 19.3332 26.769 19.3332 26.769C19.3332 26.769 18.9228 27.6591 18.3196 28.2337V28.2348Z" fill="#B2B2B2"/>
<path d="M44.7436 10.1292V16.6982H43.199V11.3678H40.1673V16.6982H38.6227V10.1292H44.7424H44.7436ZM49.3153 10.1292C49.9095 10.1292 50.4247 10.2262 50.8599 10.4203C51.3007 10.6145 51.6401 10.8891 51.8769 11.2464C52.1136 11.6027 52.232 12.0251 52.232 12.5137C52.232 13.0023 52.1136 13.4181 51.8769 13.7809C51.6401 14.1372 51.3007 14.4129 50.8599 14.607C50.4247 14.7945 49.9106 14.8883 49.3153 14.8883H47.9624V16.6993H46.4088V10.1303H49.3153V10.1292ZM49.2285 13.6486C49.6953 13.6486 50.0504 13.5515 50.2928 13.3574C50.5352 13.1567 50.657 12.8754 50.657 12.5126C50.657 12.1497 50.5352 11.8619 50.2928 11.6677C50.0493 11.467 49.6953 11.3678 49.2285 11.3678H47.9624V13.6486H49.2285ZM58.4554 15.4783V16.6982H53.2568V10.1292H58.3314V11.349H54.8014V12.7751H57.9188V13.9574H54.8014V15.4772H58.4566L58.4554 15.4783ZM63.5278 13.2736C63.9179 13.4048 64.2211 13.6111 64.4387 13.8934C64.662 14.1692 64.7747 14.4912 64.7747 14.8596C64.7747 15.26 64.6405 15.6074 64.3722 15.9008C64.1039 16.1952 63.7397 16.4202 63.2786 16.5768C62.8242 16.7335 62.3259 16.8118 61.7825 16.8118C61.3225 16.8118 60.8614 16.7555 60.4014 16.643C59.947 16.5305 59.5152 16.3585 59.106 16.1269L59.5851 15.0383C59.8794 15.2136 60.2018 15.3482 60.5536 15.4419C60.9121 15.5291 61.2605 15.5732 61.5987 15.5732C62.0587 15.5732 62.4398 15.4916 62.7397 15.3294C63.0463 15.1673 63.1997 14.9379 63.1997 14.6445C63.1997 14.4008 63.0937 14.2155 62.8829 14.0909C62.6777 13.9662 62.3969 13.9034 62.0384 13.9034H60.398V12.7585H61.9234C62.2369 12.7585 62.4793 12.6957 62.6529 12.571C62.8321 12.4453 62.9212 12.2744 62.9212 12.0549C62.9212 11.7979 62.7938 11.5983 62.5379 11.4549C62.2887 11.3104 61.9651 11.2387 61.5694 11.2387C61.2751 11.2387 60.9719 11.2795 60.6584 11.3611C60.345 11.4361 60.0474 11.5519 59.7666 11.7086L59.2965 10.5262C60.0068 10.17 60.7734 9.9913 61.5987 9.9913C62.123 9.9913 62.6055 10.0663 63.0475 10.2163C63.4883 10.3663 63.8401 10.5858 64.1028 10.8736C64.3643 11.1615 64.4962 11.4957 64.4962 11.8773C64.4962 12.1905 64.4094 12.4685 64.2369 12.7122C64.0644 12.956 63.8277 13.1435 63.5266 13.2758L63.5278 13.2736ZM66.0047 10.1292H67.5493V14.4085L70.7535 10.1292H72.2113V16.6982H70.6768V12.4288L67.4727 16.6982H66.0047V10.1292ZM80.7617 15.4596V18.0592H79.3231V16.6982H74.5845V18.0592H73.1459L73.1561 15.4596H73.4244C73.8269 15.4475 74.1121 15.1596 74.2779 14.596C74.4436 14.0335 74.5462 13.2295 74.5845 12.1839L74.6612 10.1292H79.8214V15.4596H80.7617ZM75.9566 12.3251C75.925 13.1071 75.8574 13.7633 75.7548 14.296C75.6522 14.821 75.4955 15.2092 75.2847 15.4596H78.287V11.3678H75.9848L75.9555 12.3251H75.9566ZM87.0077 15.4783V16.6982H81.8091V10.1292H86.8837V11.349H83.3537V12.7751H86.4711V13.9574H83.3537V15.4772H87.0088L87.0077 15.4783ZM94.4206 10.1292V16.6982H92.867V14.0048H89.8162V16.6982H88.2626V10.1292H89.8162V12.7188H92.867V10.1292H94.4206ZM101.235 11.3689H99.0859V16.6993H97.5515V11.3689H95.4128V10.1303H101.235V11.3689ZM105.292 16.8107C104.608 16.8107 103.988 16.6673 103.431 16.3794C102.881 16.0849 102.447 15.6824 102.127 15.1684C101.813 14.6489 101.656 14.0644 101.656 13.4137C101.656 12.7629 101.813 12.1817 102.127 11.6688C102.447 11.1494 102.881 10.7457 103.431 10.4578C103.987 10.1634 104.611 10.0167 105.301 10.0167C105.883 10.0167 106.407 10.117 106.874 10.3167C107.348 10.5174 107.743 10.8042 108.064 11.1803L107.066 12.0813C106.612 11.5685 106.049 11.3115 105.378 11.3115C104.962 11.3115 104.591 11.4019 104.265 11.5839C103.94 11.7593 103.684 12.0063 103.498 12.3251C103.318 12.6438 103.229 13.0067 103.229 13.4137C103.229 13.8206 103.318 14.1835 103.498 14.5023C103.682 14.821 103.938 15.0714 104.265 15.2533C104.591 15.4287 104.962 15.5158 105.378 15.5158C106.05 15.5158 106.613 15.2567 107.066 14.7372L108.064 15.6383C107.743 16.0199 107.348 16.311 106.874 16.5107C106.401 16.7103 105.873 16.8107 105.291 16.8107H105.292ZM111.677 14.0523H110.603V16.6982H109.058V10.1292H110.603V12.785H111.715L113.48 10.1292H115.12L112.924 13.3012L115.188 16.6982H113.422L111.677 14.0523ZM115.915 10.1292H117.46V14.4085L120.664 10.1292H122.122V16.6982H120.587V12.4288L117.383 16.6982H115.915V10.1292ZM123.794 10.1292H125.338V14.4085L128.541 10.1292H130V16.6982H128.465V12.4288L125.262 16.6982H123.794V10.1292ZM126.892 9.70785C125.664 9.70785 125.044 9.22919 125.03 8.27185H126.096C126.108 8.72846 126.374 8.95676 126.892 8.95676C127.148 8.95676 127.343 8.90052 127.477 8.78802C127.611 8.6689 127.681 8.49685 127.688 8.27185H128.753C128.746 8.74059 128.59 9.09794 128.283 9.34168C127.975 9.58543 127.512 9.70785 126.892 9.70785ZM46.5757 24.8653C46.5757 25.7344 46.2724 26.4204 45.6647 26.92C45.0638 27.4142 44.1968 27.6899 43.0648 27.7461V28.4597H41.6352V27.7373C40.4965 27.6744 39.6239 27.3965 39.0162 26.9024C38.4153 26.4017 38.1143 25.7234 38.1143 24.8664C38.1143 24.0094 38.4153 23.3278 39.0162 22.8392C39.6239 22.3451 40.4965 22.0639 41.6352 21.9944V21.3183H43.0648V21.9845C44.1968 22.0473 45.0638 22.3286 45.6647 22.8293C46.2724 23.33 46.5757 24.0083 46.5757 24.8653ZM43.0648 26.555C43.7424 26.4921 44.2475 26.3234 44.5801 26.0487C44.9127 25.7675 45.0784 25.3704 45.0784 24.8565C45.0784 23.855 44.4076 23.2992 43.0637 23.1867V26.555H43.0648ZM39.6216 24.8653C39.6216 25.8535 40.2936 26.4171 41.6364 26.5539V23.1856C40.952 23.2484 40.4435 23.4172 40.1109 23.6918C39.7851 23.9609 39.6216 24.3513 39.6216 24.8653ZM50.9422 28.2811C50.2455 28.2811 49.6152 28.1344 49.0526 27.8399C48.4968 27.5454 48.0582 27.1428 47.738 26.6289C47.4246 26.1094 47.2679 25.5282 47.2679 24.8841C47.2679 24.2399 47.4246 23.6609 47.738 23.1481C48.0582 22.6286 48.4957 22.2227 49.0526 21.9282C49.6152 21.6337 50.2455 21.4871 50.9422 21.4871C51.639 21.4871 52.2658 21.6337 52.8216 21.9282C53.3775 22.2227 53.816 22.6286 54.1362 23.1481C54.4564 23.6609 54.6154 24.2399 54.6154 24.8841C54.6154 25.5282 54.4553 26.1105 54.1362 26.6289C53.816 27.1417 53.3786 27.5454 52.8216 27.8399C52.2658 28.1344 51.639 28.2811 50.9422 28.2811ZM50.9422 26.9862C51.3391 26.9862 51.6965 26.8991 52.0167 26.7237C52.3368 26.5428 52.586 26.2925 52.7653 25.9726C52.9513 25.6539 53.0437 25.291 53.0437 24.8841C53.0437 24.4771 52.9513 24.1142 52.7653 23.7955C52.586 23.4767 52.3368 23.2297 52.0167 23.0543C51.6965 22.8723 51.3391 22.7819 50.9422 22.7819C50.5454 22.7819 50.188 22.8723 49.8678 23.0543C49.5476 23.2297 49.295 23.4767 49.1101 23.7955C48.9309 24.1142 48.8418 24.4771 48.8418 24.8841C48.8418 25.291 48.9309 25.6539 49.1101 25.9726C49.295 26.2914 49.5487 26.5417 49.8678 26.7237C50.188 26.8991 50.5454 26.9862 50.9422 26.9862ZM61.9719 21.6007V28.1697H60.4183V25.4763H57.3686V28.1697H55.815V21.6007H57.3686V24.1903H60.4183V21.6007H61.9719ZM70.5325 26.93V29.5296H69.0939V28.1686H64.3553V29.5296H62.9167L62.9268 26.93H63.1952C63.5977 26.9178 63.8829 26.63 64.0486 26.0664C64.2144 25.5039 64.317 24.6999 64.3553 23.6543L64.432 21.5996H69.5922V26.93H70.5325ZM65.7274 23.7955C65.6958 24.5774 65.6282 25.2337 65.5256 25.7664C65.423 26.2914 65.2663 26.6796 65.0554 26.93H68.0578V22.8381H65.7556L65.7263 23.7955H65.7274ZM44.7436 33.071V39.64H43.199V34.3096H40.1673V39.64H38.6227V33.071H44.7424H44.7436ZM49.3153 33.071C49.9095 33.071 50.4247 33.1681 50.8599 33.3622C51.3007 33.5563 51.6401 33.831 51.8769 34.1883C52.1136 34.5445 52.232 34.967 52.232 35.4556C52.232 35.9442 52.1136 36.36 51.8769 36.7228C51.6401 37.0791 51.3007 37.3548 50.8599 37.5489C50.4247 37.7364 49.9106 37.8301 49.3153 37.8301H47.9624V39.6411H46.4088V33.0721H49.3153V33.071ZM49.2285 36.5894C49.6953 36.5894 50.0504 36.4923 50.2928 36.2982C50.5352 36.0975 50.657 35.8162 50.657 35.4534C50.657 35.0905 50.5352 34.8026 50.2928 34.6085C50.0493 34.4078 49.6953 34.3085 49.2285 34.3085H47.9624V36.5894H49.2285ZM53.2557 33.071H54.8003V37.3504L58.0045 33.071H59.4622V39.64H57.9278V35.3706L54.7236 39.64H53.2557V33.071ZM64.0408 33.071C64.636 33.071 65.1501 33.1681 65.5853 33.3622C66.0262 33.5563 66.3655 33.831 66.6023 34.1883C66.839 34.5445 66.9574 34.967 66.9574 35.4556C66.9574 35.9442 66.839 36.36 66.6023 36.7228C66.3655 37.0791 66.0273 37.3548 65.5853 37.5489C65.1501 37.7364 64.636 37.8301 64.0408 37.8301H62.6878V39.6411H61.1342V33.0721H64.0408V33.071ZM63.9539 36.5894C64.4207 36.5894 64.7758 36.4923 65.0182 36.2982C65.2606 36.0975 65.3824 35.8162 65.3824 35.4534C65.3824 35.0905 65.2606 34.8026 65.0182 34.6085C64.7747 34.4078 64.4207 34.3085 63.9539 34.3085H62.6878V36.5894H63.9539ZM71.2789 39.7514C70.5821 39.7514 69.9519 39.6047 69.3893 39.3103C68.8335 39.0158 68.3949 38.6132 68.0747 38.0993C67.7613 37.5798 67.6046 36.9985 67.6046 36.3533C67.6046 35.7081 67.7613 35.1302 68.0747 34.6173C68.3949 34.0979 68.8323 33.6909 69.3893 33.3975C69.9519 33.103 70.5821 32.9563 71.2789 32.9563C71.9756 32.9563 72.6025 33.103 73.1583 33.3975C73.7141 33.692 74.1527 34.0979 74.4729 34.6173C74.7931 35.1302 74.9521 35.7092 74.9521 36.3533C74.9521 36.9974 74.792 37.5798 74.4729 38.0993C74.1527 38.6121 73.7153 39.0158 73.1583 39.3103C72.6025 39.6047 71.9756 39.7514 71.2789 39.7514ZM71.2789 38.4566C71.6757 38.4566 72.0331 38.3695 72.3533 38.1941C72.6735 38.0132 72.9227 37.7629 73.1019 37.443C73.288 37.1243 73.3804 36.7614 73.3804 36.3544C73.3804 35.9475 73.288 35.5846 73.1019 35.2659C72.9227 34.9471 72.6735 34.7001 72.3533 34.5247C72.0331 34.3438 71.6757 34.2523 71.2789 34.2523C70.882 34.2523 70.5246 34.3427 70.2044 34.5247C69.8842 34.7001 69.6317 34.9471 69.4468 35.2659C69.2675 35.5846 69.1785 35.9475 69.1785 36.3544C69.1785 36.7614 69.2675 37.1243 69.4468 37.443C69.6317 37.7618 69.8842 38.0121 70.2044 38.1941C70.5246 38.3695 70.882 38.4566 71.2789 38.4566ZM82.8881 38.4004V40.9999H81.4495V39.6389H76.7109V40.9999H75.2723L75.2813 38.4004H75.5496C75.9521 38.3882 76.2373 38.1004 76.4031 37.5368C76.5688 36.9732 76.6714 36.1702 76.7097 35.1247L76.7864 33.0699H81.9467V38.4004H82.8869H82.8881ZM78.0829 35.2659C78.0514 36.0478 77.9837 36.7041 77.8811 37.2368C77.7785 37.7618 77.6218 38.15 77.411 38.4004H80.4134V34.3085H78.1111L78.0818 35.2659H78.0829ZM87.187 35.2284C88.0055 35.2284 88.6324 35.407 89.0675 35.7633C89.5084 36.1195 89.7293 36.6489 89.7293 37.3493C89.7293 38.0937 89.4858 38.6629 88.9999 39.0566C88.5207 39.4448 87.842 39.6378 86.966 39.6378H83.9343V33.0688H85.4789V35.2273H87.1859L87.187 35.2284ZM86.8792 38.5129C87.2817 38.5129 87.5951 38.4158 87.8195 38.2217C88.0495 38.0276 88.1645 37.7463 88.1645 37.3768C88.1645 36.6952 87.736 36.3544 86.8792 36.3544H85.4789V38.5129H86.8792ZM90.5817 33.071H92.1263V39.64H90.5817V33.071Z" fill="#CFCFCF"/>
</g>
<defs>
<clipPath id="clip0_321_1507">
<rect width="130" height="41" fill="white"/>
</clipPath>
</defs>
</svg>
