<svg width="145" height="26" viewBox="0 0 145 26" fill="none" xmlns="http://www.w3.org/2000/svg">
<g clip-path="url(#clip0_0_5)">
<path fill-rule="evenodd" clip-rule="evenodd" d="M7.6307 10.6991V1.55732H8.4107C8.99556 1.55732 9.97099 1.45978 9.97099 4.19707V8.01025C9.97099 10.7478 8.99527 10.6991 8.4107 10.6991H7.6307ZM1.63362 21.6494H0.17119V22.4321H10.7993C13.3837 22.4321 16.0654 21.5022 16.0654 17.2983C16.0654 14.4147 15.0413 11.6768 11.0431 11.2855V10.9432C12.9937 10.7972 15.724 9.86792 15.724 5.81089C15.724 1.21534 12.1645 0.726464 10.9951 0.726464H0.170898V1.55761H1.63333L1.63362 21.6494ZM7.6307 21.6494V11.4812H8.4107C8.99556 11.4812 9.97099 11.4324 9.97099 14.17V18.9594C9.97099 21.6973 8.99527 21.6494 8.4107 21.6494H7.6307Z" fill="white"/>
<path fill-rule="evenodd" clip-rule="evenodd" d="M18.5516 1.55761H17.04V0.726464H30.4963V8.49913H30.0087C29.3737 1.60638 25.9616 1.55732 24.8892 1.55732H24.4992V11.0901H24.7913C26.7416 11.0901 27.5219 8.64631 27.4243 6.44608H27.9605V16.4675H27.4243C27.5219 14.2675 26.7416 11.8722 24.7913 11.8722H24.4992V21.6494C28.5943 21.7475 30.0084 17.9338 30.3498 14.0724H30.8857V22.4321H17.0394V21.6494H18.551V1.55761H18.5516Z" fill="white"/>
<path fill-rule="evenodd" clip-rule="evenodd" d="M38.1033 1.55761V21.6497H34.1541C35.909 19.059 36.1041 15.2943 36.1041 9.91727V3.31803C36.1041 1.60697 36.6406 1.5579 37.0792 1.5579L38.1033 1.55761ZM33.569 0.726756V1.5579H34.349C34.8365 1.5579 35.5192 1.65603 35.5192 3.56218V9.91757C35.5192 18.717 34.3003 21.65 32.3992 21.65H32.1065V26H32.5941C32.6914 22.7749 33.862 22.4327 36.4457 22.4327H41.6136C44.198 22.4327 45.368 22.7749 45.4655 26H45.9531V21.6497H44.1004V1.55761H45.5628V0.726464L33.569 0.726756Z" fill="white"/>
<path fill-rule="evenodd" clip-rule="evenodd" d="M52.0461 3.07272C52.0461 1.70393 52.4851 1.11751 53.2164 1.11751C53.8991 1.11751 54.3864 1.70422 54.3864 3.07272V20.1834C54.3864 21.5022 53.8991 22.0895 53.2164 22.0895C52.4851 22.0895 52.0461 21.5019 52.0461 20.1834V3.07272ZM45.708 11.6275C45.708 17.0051 48.2431 22.9189 53.2161 22.9189C58.1886 22.9189 60.6751 17.0051 60.6751 11.6275C60.6751 6.20135 58.1886 0.28636 53.2161 0.28636C48.2431 0.28636 45.708 6.20135 45.708 11.6275Z" fill="white"/>
<path fill-rule="evenodd" clip-rule="evenodd" d="M63.3088 3.21991H63.2602V18.9597C63.2602 21.4056 64.0889 21.6497 64.7713 21.6497H65.1613V22.4324H61.1634V21.6497C61.7969 21.6976 62.6751 21.3553 62.6751 18.9597V1.55761H61.1634V0.726464H68.6716L70.5726 9.575H70.6705L72.6205 0.726464H80.1289V1.55761H78.6659V21.6497H80.1289V22.4324H71.2064V21.6497H72.6689V3.31803H72.5716L68.3299 22.4324H67.5013L63.3088 3.21991Z" fill="white"/>
<path fill-rule="evenodd" clip-rule="evenodd" d="M87.149 3.07272C87.149 1.70393 87.636 1.11751 88.3187 1.11751C89.0504 1.11751 89.4884 1.70422 89.4884 3.07272V20.1834C89.4884 21.5022 89.0504 22.0895 88.3187 22.0895C87.636 22.0895 87.149 21.5019 87.149 20.1834V3.07272ZM80.8592 11.6275C80.8592 17.0051 83.3457 22.9189 88.3187 22.9189C93.2906 22.9189 95.8266 17.0051 95.8266 11.6275C95.8266 6.20135 93.2906 0.28636 88.3187 0.28636C83.3457 0.28636 80.8592 6.20135 80.8592 11.6275Z" fill="white"/>
<path fill-rule="evenodd" clip-rule="evenodd" d="M110.404 7.86492H109.868C109.38 4.34554 107.674 1.60765 105.723 1.60765C103.578 1.60765 103.481 4.78535 103.481 6.30075V16.3218C103.481 17.2993 103.529 21.0138 105.967 21.0138C108.697 21.0138 109.77 17.2502 110.16 14.366L110.647 14.5129C110.209 18.131 108.844 22.9199 104.65 22.9199C99.6284 22.9199 97.1908 16.7616 97.1908 11.58C97.1908 5.37118 100.214 0.287338 104.65 0.287338C105.529 0.287338 106.844 0.580547 108.064 1.7049L109.672 -0.201538H110.16L110.404 7.86492Z" fill="white"/>
<path fill-rule="evenodd" clip-rule="evenodd" d="M115.963 1.55732C113.184 1.80176 112.209 6.15287 112.014 8.49913H111.526V0.726464H126.397V8.49913H125.86C125.665 6.15316 124.689 1.80176 121.957 1.55732V21.6494H123.714V22.4321H114.157V21.6494H115.961V1.55732H115.963Z" fill="white"/>
<path fill-rule="evenodd" clip-rule="evenodd" d="M134.881 15.881H134.977L137.22 3.02395V1.55732H136.488V0.726464H144.679V1.55732H143.217V21.6494H144.679V22.4321H136.488V21.6494H137.22V6.44608H137.123L134.881 19.2538V21.6494H135.612V22.4321H127.419V21.6494H128.884V1.55732H127.419V0.726464H135.612V1.55732H134.881V15.881Z" fill="white"/>
</g>
<defs>
<clipPath id="clip0_0_5">
<rect width="145" height="26" fill="white"/>
</clipPath>
</defs>
</svg>
