<svg preserveAspectRatio="none" width="100%" height="100%" overflow="visible" style="display: block;" viewBox="0 0 30 30" fill="none" xmlns="http://www.w3.org/2000/svg">
<g id="20/Icon/OK">
<g id="Vector">
<path d="M15.3077 2C11.8099 2 8.97437 4.83554 8.97437 8.33324C8.97437 11.831 11.8099 14.6668 15.3077 14.6668C18.8056 14.6668 21.6411 11.831 21.6411 8.33324C21.6411 4.83554 18.8056 2 15.3077 2ZM15.3077 10.9514C13.8618 10.9514 12.6897 9.7792 12.6897 8.33333C12.6897 6.88747 13.8618 5.71531 15.3077 5.71531C16.7536 5.71531 17.9258 6.88747 17.9258 8.33333C17.9258 9.7792 16.7536 10.9514 15.3077 10.9514Z" fill="var(--fill-0, #999999)"/>
<path d="M17.7063 20.1119C20.3083 19.5836 21.8675 18.3554 21.95 18.2894C22.7114 17.6808 22.8338 16.5722 22.2231 15.8132C21.6126 15.0542 20.5005 14.9323 19.7389 15.5409C19.7228 15.5538 18.0597 16.8255 15.3234 16.8273C12.5872 16.8255 10.889 15.5538 10.8729 15.5409C10.1113 14.9323 8.99914 15.0542 8.38861 15.8132C7.77799 16.5722 7.9003 17.6808 8.6617 18.2894C8.74531 18.3563 10.3689 19.6165 13.0439 20.1324L9.31585 24.0159C8.63835 24.7162 8.65872 25.8313 9.36133 26.5066C9.70427 26.8362 10.1463 27 10.5879 27C11.0509 27 11.5134 26.8197 11.8602 26.4612L15.3235 22.7838L19.1366 26.485C19.8275 27.1725 20.9463 27.1714 21.6359 26.4831C22.3254 25.7946 22.3246 24.6793 21.6339 23.9919L17.7063 20.1119Z" fill="var(--fill-0, #999999)"/>
</g>
</g>
</svg>
