<svg preserveAspectRatio="none" width="100%" height="100%" overflow="visible" style="display: block;" viewBox="0 0 30 30" fill="none" xmlns="http://www.w3.org/2000/svg">
<g id="Vk">
<path id="Vector" d="M18.6876 3H11.3244C4.5996 3 3 4.5996 3 11.3124V18.6756C3 25.3992 4.5876 27 11.3124 27H18.6756C25.3992 27 27 25.4124 27 18.6876V11.3244C27 4.5996 25.4124 3 18.6876 3ZM22.3752 20.124H20.6244C19.962 20.124 19.7628 19.5876 18.5748 18.3996C17.538 17.4 17.1 17.2752 16.8372 17.2752C16.4748 17.2752 16.3752 17.3748 16.3752 17.8752V19.4496C16.3752 19.8756 16.2372 20.1252 15.1248 20.1252C14.0452 20.0526 12.9983 19.7247 12.0703 19.1682C11.1423 18.6118 10.3598 17.8429 9.7872 16.9248C8.4278 15.2328 7.48193 13.247 7.0248 11.1252C7.0248 10.8624 7.1244 10.6248 7.6248 10.6248H9.3744C9.8244 10.6248 9.9864 10.8252 10.1628 11.2872C11.0124 13.788 12.462 15.9624 13.05 15.9624C13.2756 15.9624 13.374 15.8628 13.374 15.3V12.7248C13.2996 11.55 12.6756 11.4504 12.6756 11.0256C12.6836 10.9136 12.735 10.809 12.8187 10.7342C12.9025 10.6594 13.0122 10.6201 13.1244 10.6248H15.8748C16.2504 10.6248 16.3752 10.812 16.3752 11.262V14.7372C16.3752 15.1128 16.5372 15.2376 16.65 15.2376C16.8756 15.2376 17.0496 15.1128 17.4624 14.7C18.349 13.6187 19.0734 12.4141 19.6128 11.124C19.6679 10.969 19.7723 10.8364 19.9098 10.7462C20.0474 10.6561 20.2107 10.6135 20.3748 10.6248H22.1256C22.65 10.6248 22.7616 10.8876 22.65 11.262C22.0134 12.6881 21.2257 14.0419 20.3004 15.3C20.112 15.588 20.0364 15.738 20.3004 16.0752C20.4744 16.338 21.0876 16.8504 21.5004 17.3376C22.1003 17.936 22.5984 18.6283 22.9752 19.3872C23.1252 19.8744 22.8744 20.124 22.3752 20.124Z" fill="var(--fill-0, #999999)"/>
</g>
</svg>
