<svg preserveAspectRatio="none" width="100%" height="100%" overflow="visible" style="display: block;" viewBox="0 0 24 24" fill="none" xmlns="http://www.w3.org/2000/svg">
<g id="Frame 1948757841">
<path id="Vector" d="M7.12376 22.3567C7.00193 22.2704 6.83451 22.2937 6.73286 22.4025C5.37104 23.8604 1.88577 24.8831 1.72657 22.8932C1.72657 21.334 1.37751 20.0202 0.993335 18.5736C0.523202 16.8021 0 14.8317 0 11.967C0 5.13674 5.58032 0 12.1966 0C18.8128 0 24 5.38734 24 12.0337C24 18.6801 18.6476 23.9347 12.2586 23.9347C9.9924 23.9347 8.89218 23.6135 7.12376 22.3567ZM12.3819 5.92233C9.24198 5.75726 6.7919 7.94446 6.25151 11.3674C5.8038 14.2022 6.59757 17.6567 7.27624 17.8308C7.564 17.9043 8.25687 17.3731 8.76064 16.8959C8.85556 16.8058 8.99832 16.7908 9.10969 16.8591C9.89524 17.3415 10.7847 17.704 11.7653 17.755C14.989 17.9246 17.8457 15.3922 18.0138 12.156C18.1827 8.91988 15.6049 6.0919 12.3819 5.92233Z" fill="var(--fill-0, #999999)"/>
</g>
</svg>
